# xmcd CD database file
#
# Track frame offsets:
#	150
#	16671
#	38263
#	58554
#	80350
#	88823
#	100354
#	127692
#	145992
#	163264
#	187571
#	198195
#	226064
#	249082
#	278579
#	294758
#	306989
#	330276
#
# Disc length: 4562 seconds
#
# Revision: 0
# Processed by: cddbd v1.5.1PL0 Copyright (c) Steve Scherf et al.
# Submitted via: CDex 1.51
#
DISCID=d011d012
DTITLE=Van Morrison - Acoustic Studio Demos 1968-1971
DYEAR=1900
DGENRE=
TTITLE0=The Way That Young Lovers Do
TTITLE1=Ballerina
TTITLE2=And It Stoned Me
TTITLE3=Caravan
TTITLE4=Come Running
TTITLE5=These Dreams of You
TTITLE6=Brand New Day
TTITLE7=Domino
TTITLE8=If I Ever Needed Someone
TTITLE9=Wild Night
TTITLE10=When That Evening Sun Goes Down
TTITLE11=Nobody Really Knows
TTITLE12=Bit By Bit
TTITLE13=Hey Where Are You
TTITLE14=I Need Your Kind of Loving
TTITLE15=Lorna
TTITLE16=Rock and Roll Band
TTITLE17=Funny Face
EXTD=
EXTT0=
EXTT1=
EXTT2=
EXTT3=
EXTT4=
EXTT5=
EXTT6=
EXTT7=
EXTT8=
EXTT9=
EXTT10=
EXTT11=
EXTT12=
EXTT13=
EXTT14=
EXTT15=
EXTT16=
EXTT17=
PLAYORDER=
